<svg xmlns="http://www.w3.org/2000/svg" xmlns:xlink="http://www.w3.org/1999/xlink" width="434.305" height="436.042" viewBox="0 0 434.305 436.042"><defs><style>.a,.f,.o,.w{fill:#ff725e;}.a,.b,.c,.d,.e,.k,.p,.w{stroke:#263238;}.a,.c,.d,.k{stroke-miterlimit:10;}.b,.s{fill:#999;}.b,.e,.p,.w{stroke-linecap:round;stroke-linejoin:round;}.c,.e,.g,.n,.x{fill:#fff;}.d,.v{fill:#bfbfbf;}.g{opacity:0.7;}.h{fill:#263238;}.i{clip-path:url(#a);}.j,.l,.m,.q{fill:rgba(0,0,0,0.7);}.j,.o{opacity:0.4;}.k,.p{fill:none;}.l{opacity:0.1;}.m{opacity:0.2;}.q{opacity:0.3;}.r{clip-path:url(#b);}.t{clip-path:url(#c);}.u{clip-path:url(#d);}.x{opacity:0.5;}.y{clip-path:url(#e);}.z{clip-path:url(#f);}.aa{clip-path:url(#g);}</style><clipPath id="a"><path class="a" d="M454.25,124,426,364.51a5.26,5.26,0,0,1-5.84,4.61l-183.7-21.56,29.47-251,183.7,21.57a5.26,5.26,0,0,1,4.62,5.87Z"/></clipPath><clipPath id="b"><path class="a" d="M320.49,80.91V323.12a5.28,5.28,0,0,1-5.27,5.27h-185V75.65h185a5.26,5.26,0,0,1,5.27,5.26Z"/></clipPath><clipPath id="c"><path class="b" d="M316,242.81v64.31a4.52,4.52,0,0,1-4,4.49l-2.14.24-18.68,2V236L312,238.31a4.53,4.53,0,0,1,4,4.5Z"/></clipPath><clipPath id="d"><path class="c" d="M316,170.31v64.31a4.52,4.52,0,0,1-4,4.49l-4.23.46v80.22a5,5,0,0,1-4.16,4.94,4.271,4.271,0,0,1-.87.08l-172.42-.14V80l172.42.14a4.28,4.28,0,0,1,.87.09,5,5,0,0,1,4.16,4.93v80.22l4.23.47a4.51,4.51,0,0,1,4,4.46Z"/></clipPath><clipPath id="e"><path class="d" d="M130.32,80V325l-32.08,9.7-.38.1a3.84,3.84,0,0,1-4.89-4V164.24l-1.77-1.1c-.52-.31-.91-2.49-.91-5V87.39c0-2.54.39-4.57.91-4.7l1.8-.46v-8a3.83,3.83,0,0,1,4.89-4l.38.1Z"/></clipPath><clipPath id="f"><path class="e" d="M119.66,359.77s-2.15-3.28-2.7-12.44-.16-15.22-1.6-18.8c0,0-1.79-3.23-3.94-6.81s-1.79-15.46-1.44-26.85,2.48-14,7-15.64c11-4,13.74,9.63,18.8,25s4.7,26.27,6.49,30.14,5.42,8.88,8.63,19.27"/></clipPath><clipPath id="g"><path class="e" d="M309.14,381.27c-6.28-13.95-13.45-21.91-12-29.44s-1.08-35.85-4-47-7.21-27.5,0-30.86,12.09,4,12.09,4c4.3,4.48,9.68,17.92,12.37,27.43s2,21.33,2,21.33,4,6.09,7.53,12.19,7.71,4.84,7.71,4.84"/></clipPath></defs><g transform="translate(-37.983 -32.171)"><path class="f" d="M158.12,453.93C42,409.08,72.65,346.2,51.29,263s-19-115,33-173.11S226.13,10.27,290.2,79s123.36,62.17,160,113.23S480,303.75,413.79,346.41,301.36,509.23,158.12,453.93Z"/><path class="g" d="M158.12,453.93C42,409.08,72.65,346.2,51.29,263s-19-115,33-173.11S226.13,10.27,290.2,79s123.36,62.17,160,113.23S480,303.75,413.79,346.41,301.36,509.23,158.12,453.93Z"/><path class="h" d="M207.64,114.64a.48.48,0,0,0,.41-.22l27.36-40.36v-.12a.46.46,0,0,0,0-.26l-1.2-6.23h0l-1.34-7h0l-1.11-5.82a.59.59,0,0,0-.12-.22h-.05L199,32.26a.49.49,0,0,0-.69.13l-35,51.7a.51.51,0,0,0,.14.7l43.92,29.77a.54.54,0,0,0,.27.08ZM224.36,66l6.72-10,3.2,16.65Zm-1.11-.15a.5.5,0,0,0,.13.7l7.21,4.88-12,17.72L182.91,64.93l17.34-25.59,28.05,19ZM198.89,33.37l31.76,21.52-1.79,2.64L200.4,38.23a.51.51,0,0,0-.7.14L181.8,64.78a.51.51,0,0,0-.08.38.54.54,0,0,0,.21.32l36.5,24.74a.52.52,0,0,0,.7-.14L231.42,72l2.88,2-26.8,39.54-43.09-29.3Z"/><path class="h" d="M196.42,57.83,198.57,69a.49.49,0,0,0,.49.4h.09a.5.5,0,0,0,.4-.58l-2.05-10.7,10.69-2.06a.49.49,0,0,0,.4-.58.5.5,0,0,0-.58-.4l-11.19,2.15a.5.5,0,0,0-.4.6Z"/><path class="h" d="M208.8,75.1a.5.5,0,0,0-.4.58.51.51,0,0,0,.49.41h.1l11.19-2.15a.48.48,0,0,0,.39-.58l-2.14-11.2a.509.509,0,1,0-1,.19L219.5,73Z"/><path class="h" d="M202,71.53a.52.52,0,0,0,.37.16.5.5,0,0,0,.34-.13L215,60.35a.48.48,0,0,0,0-.7.49.49,0,0,0-.7,0L202,70.82a.5.5,0,0,0,0,.71Z"/><path class="h" d="M189.27,76.88l-2.9,4.28-1.79-1.21,2.9-4.28-1.57-1.06-6.76,9.98,1.57,1.06,2.9-4.27,1.78,1.2-2.9,4.28,1.6,1.08,6.76-9.98Z"/><path class="h" d="M195.43,83.14l.96-1.43-4.85-3.29-.96,1.43,1.64,1.11-5.8,8.56,1.57,1.06,5.8-8.55Z"/><path class="h" d="M201.47,85.15l-5.86,6.37-.03-.02,3.66-7.86-2.18-1.48-6.76,9.99,1.36.92,4.79-7.05.03.01-3.65,7.84,1.49,1,5.91-6.44.02.02-4.85,7.16,1.48,1,6.77-9.98Z"/><path class="h" d="M204.79,87.4l-6.77,9.98,4.15,2.82.97-1.43-2.58-1.75,5.8-8.55Z"/><path class="h" d="M62.88,226.65l-2.45,8.87c-.25.89-.78,1-1.36.82a6.355,6.355,0,0,1-.62-.19L58,237.81a6.835,6.835,0,0,0,.87.28c1.38.38,2.79.12,3.43-2.2l2.41-8.73Z"/><path class="h" d="M70.57,231.87c.51-1.86-.11-3.12-1.93-3.63L66,227.5l-3.21,11.62,1.82.51,1.21-4.37.86.24c1.83.5,3-.26,3.52-2.12Zm-1.8-.62L68.29,233c-.23.83-.62,1-1.2.85l-.86-.24,1.08-3.94.87.24C68.76,230.06,69,230.42,68.77,231.25Z"/><path class="h" d="M74.82,229.81c-1.8-.5-3,.31-3.53,2.17l-1.67,6c-.52,1.86.12,3.18,1.91,3.67s3-.31,3.53-2.17l1-3.68-2.56-.71-.46,1.66.83.23-.59,2.14c-.23.83-.67,1-1.26.87s-.86-.56-.63-1.39l1.73-6.28c.23-.83.69-1,1.27-.88s.86.58.63,1.41l-.35,1.24,1.73.48.31-1.13C77.25,231.62,76.61,230.3,74.82,229.81Z"/><path class="h" d="M103.1,208.35a.51.51,0,0,0,0-.25l-3.13-5.51h0l-3.5-6.18h0l-2.92-5.14a.47.47,0,0,0-.19-.18H93.3L55.25,180.54a.5.5,0,0,0-.38,0,.54.54,0,0,0-.24.3L38,241.09a.5.5,0,0,0,.35.61L89.5,255.83h.13a.5.5,0,0,0,.48-.37l13-47a.2.2,0,0,0,0-.07Zm-7.37,6.18-3.94-5.95a.5.5,0,0,0-.62-.18l-17,7.93L66.1,204.56a.5.5,0,0,0-.6-.18l-13.18,5.4,6.32-22.92,32.67,9-2.4,8.68a.51.51,0,0,0,.35.62l8.4,2.32ZM52,211l13.53-5.53,8.07,11.78a.49.49,0,0,0,.62.17l17-7.92,4.18,6.32L92,228.13,50.44,216.65Zm38-6.64,3.19-11.56,8.36,14.75Zm-.75,50.38L39.1,240.87l16.36-59.24,37,10.22-.84,3.07-33.15-9.16a.52.52,0,0,0-.62.35l-8.49,30.76a.5.5,0,0,0,.35.61l42.5,11.74h.14a.5.5,0,0,0,.24-.06h0a.51.51,0,0,0,.16-.24l5.83-21.11,3.36.93Z"/><path class="h" d="M72.27,193.64a5.07,5.07,0,0,0-3.83.48,5,5,0,0,0,1.15,9.2,4.841,4.841,0,0,0,1.35.19,5.042,5.042,0,0,0,1.33-9.91Zm2.56,5.94A4.06,4.06,0,1,1,67,197.43a4,4,0,0,1,3.89-3,4.06,4.06,0,0,1,3.9,5.12Z"/><path class="h" d="M421.73,124.83l-21-44h0a.47.47,0,0,0-.21-.16L382.2,74.1a.46.46,0,0,0-.26,0h-.12L346.28,91.07a.49.49,0,0,0-.23.66l26.89,56.38a.46.46,0,0,0,.28.25.51.51,0,0,0,.17,0,.38.38,0,0,0,.21,0l47.89-22.84a.5.5,0,0,0,.24-.69ZM388.16,86.26,383,75.45l16,5.65Zm-.69.89a.51.51,0,0,0,.46.28.54.54,0,0,0,.21-.05L396,83.63,405.21,103l-38.89,18.5L353,93.61,383.6,79Zm-13.85,60.08L347.17,91.75l34.62-16.51,1.38,2.87-31,14.81a.55.55,0,0,0-.26.28.53.53,0,0,0,0,.39l13.74,28.8a.48.48,0,0,0,.45.28.54.54,0,0,0,.21,0l39.8-19a.5.5,0,0,0,.24-.67L396.9,83.2l3.15-1.5,20.56,43.11Z"/><path class="h" d="M372,109.31a3.74,3.74,0,0,0,1.59-.38c3.34-1.59,3.73-5.22,4-9.15h.08l2.77-1.32c1.07,3.65,2.05,7,2.32,7.88.39,1.27,1.15,1.23,1.46,1.15,1-.26,2-2.21,1.83-3.2a.51.51,0,0,0-.59-.39.5.5,0,0,0-.39.59,2.78,2.78,0,0,1-.7,1.72c-.23.26-.38.31-.4.31s-.13-.07-.25-.47c-.27-.91-1.27-4.31-2.36-8l3-1.42a.5.5,0,1,0-.43-.9L381.06,97,378,86.52a.5.5,0,0,0-1,.14v.6c0,1.59,0,5.83-.28,10.13,0,.55-.07,1.09-.1,1.63-.24,4.23-.43,7.57-3.43,9a2.17,2.17,0,0,1-2.74-.48,3.49,3.49,0,0,1,.2-4.27c2.14-3,4.08-1.73,4.17-1.67a.5.5,0,0,0,.56-.83s-2.8-1.86-5.54,1.91a4.47,4.47,0,0,0-.16,5.5,3,3,0,0,0,2.32,1.13Zm6-19.19c.59,2,1.39,4.72,2.16,7.35l-2.5,1.19a6.9,6.9,0,0,1,.07-1.2c.17-2.68.27-5.33.27-7.34Z"/><path class="h" d="M384.28,99.74a2.86,2.86,0,0,0,1.39,2.34,2.35,2.35,0,0,0,1.16.31,2.09,2.09,0,0,0,.92-.2,4.28,4.28,0,0,0,2.58-3.1,2.41,2.41,0,0,0,.78,1.2.67.67,0,0,0,.6,0,2.68,2.68,0,0,0,1.47-2.37.51.51,0,0,0-.51-.48.5.5,0,0,0-.49.5,1.72,1.72,0,0,1-.69,1.33,25.27,25.27,0,0,1-1.36-5,4.589,4.589,0,0,0-.14-.78.5.5,0,0,0-1,0,.5.5,0,0,0-.3,0,5.7,5.7,0,0,0-4.41,6.25Zm4.63-5.36a.51.51,0,0,0,.21-.1,2.382,2.382,0,0,0,.05.26c.72,4.18.26,5.74-1.85,6.75a1.27,1.27,0,0,1-1.15-.08,1.91,1.91,0,0,1-.9-1.57,4.65,4.65,0,0,1,3.64-5.26Z"/><path class="h" d="M386.89,121.9c-.83-1.74-2.22-2.3-3.9-1.5s-2.12,2.24-1.29,4l2.7,5.66c.83,1.74,2.22,2.3,3.9,1.5s2.12-2.24,1.29-4Zm.67,8.08c-.54.26-1,.13-1.4-.65l-2.8-5.87c-.37-.78-.17-1.24.37-1.5s1-.13,1.4.65l2.8,5.88c.37.77.17,1.23-.37,1.51Z"/><path class="h" d="M392.28,118.03l-.74-1.55L386.25,119l.74,1.56,1.79-.86,4.45,9.33,1.71-.81-4.45-9.33Z"/><path class="h" d="M398.51,119.09l-2.21,1.05-1.57-3.28,2.82-1.34-.74-1.55-4.53,2.16,5.19,10.88,1.72-.82-2.15-4.49,2.21-1.05Z"/><path class="h" d="M250.15,365.88v-.11a.52.52,0,0,0-.19-.17l-5.75-2.68h0l-6.44-3h0l-5.36-2.49a.48.48,0,0,0-.26,0H232l-37,13.48a.48.48,0,0,0-.28.26.46.46,0,0,0,0,.38l21.39,58.68a.53.53,0,0,0,.26.29.52.52,0,0,0,.21,0,.469.469,0,0,0,.17,0l49.85-18.17a.5.5,0,0,0,.3-.64Zm-13,4.22L233,358.84,248.37,366Zm3.19-.1a.81.81,0,0,1-.49.53.77.77,0,0,1-.63,0,.1.1,0,0,1-.08-.06Zm-4,.91a.5.5,0,0,0,.47.33.571.571,0,0,0,.18,0l1.07-.39a1.75,1.75,0,0,0,.7.59,1.86,1.86,0,0,0,.74.17c.69,3.44,1.07,11.37-8.5,15.66h-.06l-.2-.56a.51.51,0,0,0-.26-.28.5.5,0,0,0-.38,0l-2.19.8a.49.49,0,0,0-.3.64l.2.56h-.05c-10.1,2.88-14.91-3.44-16.59-6.52a1.82,1.82,0,0,0,.46-.6,1.88,1.88,0,0,0,.06-1.4,1.83,1.83,0,1,0-1.72,2.45h.3a16.81,16.81,0,0,0,3.63,4.52,13.56,13.56,0,0,0,9,3.3h.1l-6.88,2.51-.2-.56a.48.48,0,0,0-.26-.28.46.46,0,0,0-.38,0l-2.19.8a.49.49,0,0,0-.3.64l.8,2.19a.5.5,0,0,0,.47.33h.17l2.19-.8a.55.55,0,0,0,.28-.26.5.5,0,0,0,0-.38l-.25-.69,11.57-4.22h.08l.25.69a.44.44,0,0,0,.25.28.539.539,0,0,0,.22.05h.17l2.19-.8a.5.5,0,0,0,.3-.64l-.25-.68h.08L242.93,384l.25.69a.5.5,0,0,0,.47.33h.18l2.18-.8a.49.49,0,0,0,.3-.64l-.79-2.19a.51.51,0,0,0-.65-.3l-2.19.8a.5.5,0,0,0-.29.64l.2.56-6.88,2.51c5.67-4.7,5.31-11.13,4.73-14.19a1.81,1.81,0,0,0,.9-1.7l3.83-1.4,7.33,20.11L212,403.1l-10.59-29,31.84-11.61Zm-5.92,17.85-1.25.46-.45-1.25,1.25-.46Zm-21.22-7.95a.82.82,0,0,1,.49-1.06.92.92,0,0,1,.28-.05.83.83,0,0,1,.78.55.86.86,0,0,1,0,.63.78.78,0,0,1-.47.42.81.81,0,0,1-1.08-.49Zm6.45,13.34-1.25.46-.46-1.25,1.25-.46Zm27.85-11.57,1.25-.45.45,1.25-1.25.45ZM216.83,429.4l-21.05-57.74,36.05-13.14,1.09,3L200.61,373.3a.5.5,0,0,0-.3.64l10.93,30a.45.45,0,0,0,.26.28.46.46,0,0,0,.21.05.509.509,0,0,0,.17,0l41.43-15.1a.51.51,0,0,0,.3-.64l-7.5-20.58,3.27-1.2,16.36,44.88Z"/><path class="h" d="M231.33,413.79l-1.21-3.32,2.45-.89-.59-1.62-2.45.89-1.15-3.16,3.08-1.12-.59-1.62-4.86,1.78,4.13,11.32,4.86-1.77-.59-1.61Z"/><path class="h" d="M238.27,403.43c-.67-1.81-1.9-2.48-3.68-1.83l-2.62.95,4.13,11.33,1.78-.65L236.33,409l.84-.31c1.78-.65,2.29-1.95,1.63-3.77Zm-1.69,3.62-.84.31-1.4-3.84.84-.3c.57-.21,1-.06,1.26.75l.62,1.7C237.36,406.47,237.15,406.85,236.58,407.05Z"/><path class="h" d="M243,404.27c-1.54-.59-2.12-1.07-2.42-1.9s-.08-1.24.49-1.44,1,0,1.29.79l.17.47,1.69-.61-.13-.36c-.66-1.81-1.93-2.52-3.66-1.89s-2.25,2-1.59,3.8c.47,1.3,1.29,2.06,3.25,2.83,1.54.6,2.12,1.08,2.42,1.91s.05,1.23-.52,1.43-1,.05-1.32-.76l-.3-.81-1.68.62.25.69c.66,1.81,1.95,2.52,3.7,1.88s2.27-2,1.61-3.81C245.77,405.81,245,405,243,404.27Z"/><path class="f" d="M454.25,124,426,364.51a5.26,5.26,0,0,1-5.84,4.61l-183.7-21.56,29.47-251,183.7,21.57a5.26,5.26,0,0,1,4.62,5.87Z"/><g class="i"><path class="j" d="M454.25,124,426,364.51a5.26,5.26,0,0,1-5.84,4.61l-183.7-21.56,29.47-251,183.7,21.57a5.26,5.26,0,0,1,4.62,5.87Z"/></g><path class="k" d="M454.25,124,426,364.51a5.26,5.26,0,0,1-5.84,4.61l-183.7-21.56,29.47-251,183.7,21.57a5.26,5.26,0,0,1,4.62,5.87Z"/><path class="l" d="M350.53,324a8.61,8.61,0,0,1-8.36,8.78l-104.32,3L265.94,96.54l80.2,9.42Z"/><path class="m" d="M115.14,286.91s6.1-9.64,14.33-14.08c0,0,23.44,17.28,31.81,54,0,0,6.84,16.68,7.61,29s-14.41,38.63-18.62,49.42-18.34,2.42-40.56,38.17l16.74-58.58-9.08-52.39Z"/><path class="n" d="M113.48,459.41c6.06-19.89,15.52-50.18,18.38-55,4.29-7.32,7.16-5.94,12.25-10.6s10-29.76,6.77-40.16c-.66-2.14-1.34-4.06-2-5.78h0c-.56-1.4-1.11-2.69-1.65-3.86-.2-.43-.39-.85-.59-1.26-1.77-3.66-3.36-6.2-4.37-8.36-1.79-3.87-1.43-14.78-6.49-30.14s-7.78-28.93-18.8-25c-4.5,1.61-6.62,4.26-7,15.64s-.72,23.27,1.44,26.85c.68,1.13,1.32,2.22,1.89,3.2l.52.93c.64,1.08,1.11,1.93,1.35,2.36a1.8,1.8,0,0,1,.1.18.571.571,0,0,1,.07.13h0l-.16-.1-.54-.34c-.18-.13-.41-.27-.65-.45s-.81-.58-1.29-1c-.24-.19-.5-.39-.77-.62l-.41-.34c-.29-.23-.58-.48-.88-.76l-1-.89-1.21-1.16a37.154,37.154,0,0,1-3-3.26c-.19-.21-.39-.44-.58-.68l-.94-1.13-.84-1.08c-.41-.51-.81-1.06-1.2-1.62-.21-.28-.42-.56-.61-.85-.41-.58-.82-1.18-1.22-1.8s-.82-1.26-1.23-1.93c-.21-.32-.41-.66-.61-1-.4-.68-.8-1.39-1.2-2.11l-.6-1.11-.7-1.33-.48-1c-.2-.4-.39-.8-.58-1.21s-.3-.64-.45-1-.38-.84-.57-1.27-.38-.88-.56-1.33-.37-.89-.56-1.35a93.067,93.067,0,0,1-3-8.89c-.11-.36-.22-.73-.32-1.1-.2-.72-.4-1.43-.58-2.17-.14-.55-.29-1.11-.42-1.68-.68-2.86-1.29-5.87-1.8-9.06,0,0-9.27,9.37-9.27,21.3,0,19.13-2.39,41.13-2.15,54.85C75,358.6,77,379.8,77,381h0a.07.07,0,0,1,0,.06,74.438,74.438,0,0,0-4.51,9.67h0a37.27,37.27,0,0,0-2.29,9.77c-.18,2.4-3.08,9-7.17,17.2-6.45,13-15.87,30.13-22.28,41.62Z"/><path class="o" d="M137,398.55a16.58,16.58,0,0,0-5.09,5.83c-2,3.44-7.34,19.59-12.44,35.8a41.72,41.72,0,0,1,.25-19.61C123.63,404.57,130,402.24,137,398.55Z"/><path class="o" d="M148.86,347.83c-9.81-11.24-23.94-16.13-26-11.28-2.48,5.8-6,21.33-6.88,25.32l-.6-1c-5-8.05-5.64-19.46-5.64-19.46l-3.94,2.38a16.25,16.25,0,0,0-7.7,11.5c-1.51,10-4.19,26.31-5.32,24S74.61,401.1,63,417.79c4.09-8.23,7-14.8,7.17-17.2a37.27,37.27,0,0,1,2.29-9.77h0c2.44-5.18,4.18-8.89,4.51-9.67a.07.07,0,0,0,0-.06h0c0-1.17-2-22.37-2.15-29.86C74.61,337.39,77,315.39,77,296.26c0-11.93,9.27-21.3,9.27-21.3.51,3.19,1.12,6.2,1.8,9.06.13.57.28,1.13.42,1.68.18.74.38,1.45.58,2.17.1.37.21.74.32,1.1a93.068,93.068,0,0,0,3,8.89c.18.46.37.91.56,1.35s.37.89.56,1.33.38.86.57,1.27.3.66.45,1,.38.81.58,1.21l.48,1,.7,1.33.6,1.11c.4.72.8,1.43,1.2,2.11l.61,1c.41.66.82,1.31,1.23,1.93s.81,1.22,1.22,1.8c.2.29.4.58.61.85.39.56.8,1.11,1.2,1.62l.84,1.08.94,1.13.58.68c1.06,1.23,2.07,2.3,3,3.26l1.21,1.16,1,.89c.3.28.59.52.88.76l.41.34c.27.23.53.43.77.62.48.38.92.69,1.29,1l.65.45.54.34.16.1h0a.57.57,0,0,0-.07-.13,1.8,1.8,0,0,0-.1-.18c-.24-.43-.71-1.28-1.35-2.36l-.52-.93c-.57-1-1.21-2.07-1.89-3.2-2.16-3.58-1.79-15.46-1.44-26.85s2.48-14,7-15.64c11-4,13.75,9.63,18.8,25s4.7,26.27,6.49,30.14c1,2.16,2.6,4.7,4.37,8.36.2.4.4.83.59,1.26A28.5,28.5,0,0,1,148.86,347.83Z"/><path class="o" d="M115.75,362.81s.08-.33.21-.94C119.94,368.41,115.75,362.81,115.75,362.81Z"/><path class="p" d="M116.44,449.77c5.82-18.84,13-41.27,15.41-45.39,4.31-7.32,7.17-5.94,12.26-10.6s10-29.76,6.77-40.16-6.84-15.41-8.63-19.27-1.43-14.78-6.49-30.14-7.79-28.93-18.8-25c-4.5,1.62-6.62,4.26-7,15.64s-.71,23.26,1.44,26.85,3.94,6.81,3.94,6.81S92.76,315.74,86.27,275c0,0-9.27,9.37-9.27,21.3,0,19.13-2.39,41.13-2.15,54.86C75,358.6,77,379.8,77,381c0,.35-6.14,10.08-6.86,19.62-.29,3.87-7.67,18.63-15.72,33.73"/><path class="p" d="M115.36,328.53c1.44,3.58,1,9.63,1.6,18.8s2.7,12.44,2.7,12.44"/><path class="p" d="M117.51,352.53a133.48,133.48,0,0,0-2.15,14"/><path class="p" d="M89.91,338.75s2.84,23.12,2.85,31"/><path class="p" d="M134.59,400.59c-8.11,5-12.42,6.81-14.93,16.49"/><path class="p" d="M77,381c2.87-6.55,4.12-21.2,4.12-21.2"/><path class="a" d="M84.05,343.35l46.74-14.58V75.64L84.05,61.06c-2.79-.87-5.08.72-5.08,3.55V339.8C79,342.63,81.26,344.22,84.05,343.35Z"/><path class="q" d="M130.8,75.65V328.77L89.7,341.58a4.36,4.36,0,0,1-5.7-4.16V67a4.36,4.36,0,0,1,5.66-4.16Z"/><path class="f" d="M320.49,80.91V323.12a5.28,5.28,0,0,1-5.27,5.27h-185V75.65h185a5.26,5.26,0,0,1,5.27,5.26Z"/><g class="r"><path class="q" d="M318.68,176.1v151a5.23,5.23,0,0,1-3.46,1.3h-185V77.4H308.09a4.4,4.4,0,0,1,4.41,4.4v89.67l1.77.08a4.57,4.57,0,0,1,4.41,4.55Z"/></g><path class="k" d="M320.49,80.91V323.12a5.28,5.28,0,0,1-5.27,5.27h-185V75.65h185a5.26,5.26,0,0,1,5.27,5.26Z"/><path class="s" d="M316,242.81v64.31a4.52,4.52,0,0,1-4,4.49l-2.14.24-18.68,2V236L312,238.31a4.53,4.53,0,0,1,4,4.5Z"/><g class="t"><path class="m" d="M316,242.81v3.07L309.86,247v64.82l-18.68,2V236L312,238.31a4.53,4.53,0,0,1,4,4.5Z"/></g><path class="p" d="M316,242.81v64.31a4.52,4.52,0,0,1-4,4.49l-2.14.24-18.68,2V236L312,238.31a4.53,4.53,0,0,1,4,4.5Z"/><path class="n" d="M316,170.31v64.31a4.52,4.52,0,0,1-4,4.49l-4.23.46v80.22a5,5,0,0,1-4.16,4.94,4.271,4.271,0,0,1-.87.08l-172.42-.14V80l172.42.14a4.28,4.28,0,0,1,.87.09,5,5,0,0,1,4.16,4.93v80.22l4.23.47a4.51,4.51,0,0,1,4,4.46Z"/><g class="u"><path class="v" d="M316,170.31v64.31a4.52,4.52,0,0,1-4,4.49l-4.23.46v80.22a5,5,0,0,1-4.16,4.94V80.2a5,5,0,0,1,4.16,4.93v80.22l4.23.47a4.51,4.51,0,0,1,4,4.49Z"/><path class="w" d="M206.45,113.52v48.76H153.39V99.83h39.36l9.21,9.2Z"/><path class="x" d="M201.96,109.03v26.89H157.87V104.01h39.07Z"/><path class="p" d="M201.96,109.03v26.89H157.87V104.01h39.07Z"/><path class="h" d="M171.28,152.08h.65c.61,0,1.09-.22,1.09-1.16v-9.19h1.89v9.06c0,2.41-1.29,3-2.72,3a6.7,6.7,0,0,1-.91,0Z"/><path class="h" d="M181.82,144.73v1.56c0,1.93-.93,3-2.83,3h-.89v4.53h-1.9V141.75H179C180.89,141.75,181.82,142.8,181.82,144.73Zm-3.72-1.26v4.08h.9c.61,0,.93-.27.93-1.14v-1.8c0-.87-.32-1.14-.93-1.14Z"/><path class="h" d="M185.54,147.09h2.65v3.82c0,1.93-1,3-2.82,3s-2.83-1.1-2.83-3v-6.27c0-1.93,1-3,2.83-3s2.82,1.1,2.82,3v1.17H186.4v-1.29c0-.86-.38-1.19-1-1.19s-1,.33-1,1.19V151c0,.86.38,1.17,1,1.17s1-.31,1-1.17v-2.22h-.86Z"/><path class="w" d="M206.45,113.52h-13.7V99.83l9.21,9.2Z"/><path class="w" d="M201.96,122.42v13.5H157.87V129.3l12.07-9.33,11.23,9.47,14.58-12.43Z"/><circle class="w" cx="4.54" cy="4.54" r="4.54" transform="translate(168.75 107.93)"/><path class="x" d="M275.68,109.03v26.89h-44.1V104.01h39.07Z"/><path class="x" d="M201.96,255.51V282.4h-44.1V250.49h39.08Z"/><path class="p" d="M173.97,260.03l-8.05,8.06,8.05,8.05"/><path class="p" d="M185.85,276.14l8.06-8.05-8.06-8.06"/><line class="p" x1="3.85" y2="16.15" transform="translate(177.99 260.01)"/><path class="h" d="M168.18,300.28h-1.9V288.22h1.9v5.17h2.15v-5.17h1.93v12.06h-1.93v-5.16h-2.15Z"/><path class="h" d="M173.09,288.22h5.85V290h-2v10.33h-1.89V290h-2Z"/><path class="w" d="M206.45,186.76v48.76H153.39V173.06h39.36l9.21,9.21Z"/><path class="x" d="M201.96,182.27v26.89h-44.1V177.25h39.08Z"/><path class="p" d="M201.96,182.27v26.89h-44.1V177.25h39.08Z"/><path class="w" d="M206.45,186.76h-13.7v-13.7l9.21,9.21Z"/><path class="p" d="M175,194.11s-1.43-2.49-5.15-.47c-3.43,1.86-3,6.32.49,6.32,4.08,0,5.8-4.07,8.2-8.34,2.52-4.46,4.61-9,4.89-9.59,0,0-2.87,17.75-3.23,20.08s2.6.44,2.87-.63"/><path class="p" d="M190.55,193.42a5.18,5.18,0,0,0-6.14,3.5c-.64,1.79.5,3,1.62,3,2.87,0,4-1.69,5.29-6.54,0,0-1.81,6.54-.91,6.54a2.17,2.17,0,0,0,1.89-1.21"/><line class="p" x2="7.39" transform="translate(177.96 193.42)"/><path class="h" d="M171,217.88c0-1.93,1-3,2.88-3s2.88,1.1,2.88,3v6.27c0,1.93-1,3-2.88,3s-2.88-1.1-2.88-3Zm1.9,6.39c0,.86.38,1.19,1,1.19s1-.33,1-1.19v-6.51c0-.86-.38-1.19-1-1.19s-1,.33-1,1.19Z"/><path class="h" d="M177.44,215h5.85v1.73h-2V227H179.4V216.71h-2Z"/><path class="h" d="M186,220.34h2.45v1.73H186v5h-1.89V215h5v1.73H186Z"/><path class="l" d="M130.26,75.64,215.5,207.49V324.15H130.8Z"/><path class="w" d="M206.45,113.52v48.76H153.39V99.83h39.36l9.21,9.2Z" transform="translate(73.705)"/><path class="x" d="M201.96,109.03v26.89H157.87V104.01h39.07Z" transform="translate(73.705)"/><path class="p" d="M201.96,109.03v26.89H157.87V104.01h39.07Z" transform="translate(73.705)"/><path class="h" d="M171.28,152.08h.65c.61,0,1.09-.22,1.09-1.16v-9.19h1.89v9.06c0,2.41-1.29,3-2.72,3a6.7,6.7,0,0,1-.91,0Z" transform="translate(73.705)"/><path class="h" d="M181.82,144.73v1.56c0,1.93-.93,3-2.83,3h-.89v4.53h-1.9V141.75H179C180.89,141.75,181.82,142.8,181.82,144.73Zm-3.72-1.26v4.08h.9c.61,0,.93-.27.93-1.14v-1.8c0-.87-.32-1.14-.93-1.14Z" transform="translate(73.705)"/><path class="h" d="M185.54,147.09h2.65v3.82c0,1.93-1,3-2.82,3s-2.83-1.1-2.83-3v-6.27c0-1.93,1-3,2.83-3s2.82,1.1,2.82,3v1.17H186.4v-1.29c0-.86-.38-1.19-1-1.19s-1,.33-1,1.19V151c0,.86.38,1.17,1,1.17s1-.31,1-1.17v-2.22h-.86Z" transform="translate(73.705)"/><path class="w" d="M206.45,113.52h-13.7V99.83l9.21,9.2Z" transform="translate(73.705)"/><path class="w" d="M201.96,122.42v13.5H157.87V129.3l12.07-9.33,11.23,9.47,14.58-12.43Z" transform="translate(73.705)"/><circle class="w" cx="4.54" cy="4.54" r="4.54" transform="translate(242.455 107.93)"/><g transform="translate(0 73.24)"><path class="w" d="M206.45,113.52v48.76H153.39V99.83h39.36l9.21,9.2Z" transform="translate(73.705)"/><path class="x" d="M201.96,109.03v26.89H157.87V104.01h39.07Z" transform="translate(73.705)"/><path class="p" d="M201.96,109.03v26.89H157.87V104.01h39.07Z" transform="translate(73.705)"/><path class="h" d="M171.28,152.08h.65c.61,0,1.09-.22,1.09-1.16v-9.19h1.89v9.06c0,2.41-1.29,3-2.72,3a6.7,6.7,0,0,1-.91,0Z" transform="translate(73.705)"/><path class="h" d="M181.82,144.73v1.56c0,1.93-.93,3-2.83,3h-.89v4.53h-1.9V141.75H179C180.89,141.75,181.82,142.8,181.82,144.73Zm-3.72-1.26v4.08h.9c.61,0,.93-.27.93-1.14v-1.8c0-.87-.32-1.14-.93-1.14Z" transform="translate(73.705)"/><path class="h" d="M185.54,147.09h2.65v3.82c0,1.93-1,3-2.82,3s-2.83-1.1-2.83-3v-6.27c0-1.93,1-3,2.83-3s2.82,1.1,2.82,3v1.17H186.4v-1.29c0-.86-.38-1.19-1-1.19s-1,.33-1,1.19V151c0,.86.38,1.17,1,1.17s1-.31,1-1.17v-2.22h-.86Z" transform="translate(73.705)"/><path class="w" d="M206.45,113.52h-13.7V99.83l9.21,9.2Z" transform="translate(73.705)"/><path class="w" d="M201.96,122.42v13.5H157.87V129.3l12.07-9.33,11.23,9.47,14.58-12.43Z" transform="translate(73.705)"/><circle class="w" cx="4.54" cy="4.54" r="4.54" transform="translate(242.455 107.93)"/></g><g transform="translate(-73.835 73.24)"><path class="w" d="M206.45,113.52v48.76H153.39V99.83h39.36l9.21,9.2Z" transform="translate(73.705)"/><path class="x" d="M201.96,109.03v26.89H157.87V104.01h39.07Z" transform="translate(73.705)"/><path class="p" d="M201.96,109.03v26.89H157.87V104.01h39.07Z" transform="translate(73.705)"/><path class="h" d="M171.28,152.08h.65c.61,0,1.09-.22,1.09-1.16v-9.19h1.89v9.06c0,2.41-1.29,3-2.72,3a6.7,6.7,0,0,1-.91,0Z" transform="translate(73.705)"/><path class="h" d="M181.82,144.73v1.56c0,1.93-.93,3-2.83,3h-.89v4.53h-1.9V141.75H179C180.89,141.75,181.82,142.8,181.82,144.73Zm-3.72-1.26v4.08h.9c.61,0,.93-.27.93-1.14v-1.8c0-.87-.32-1.14-.93-1.14Z" transform="translate(73.705)"/><path class="h" d="M185.54,147.09h2.65v3.82c0,1.93-1,3-2.82,3s-2.83-1.1-2.83-3v-6.27c0-1.93,1-3,2.83-3s2.82,1.1,2.82,3v1.17H186.4v-1.29c0-.86-.38-1.19-1-1.19s-1,.33-1,1.19V151c0,.86.38,1.17,1,1.17s1-.31,1-1.17v-2.22h-.86Z" transform="translate(73.705)"/><path class="w" d="M206.45,113.52h-13.7V99.83l9.21,9.2Z" transform="translate(73.705)"/><path class="w" d="M201.96,122.42v13.5H157.87V129.3l12.07-9.33,11.23,9.47,14.58-12.43Z" transform="translate(73.705)"/><circle class="w" cx="4.54" cy="4.54" r="4.54" transform="translate(242.455 107.93)"/></g></g><path class="k" d="M316,170.31v64.31a4.52,4.52,0,0,1-4,4.49l-4.23.46v80.22a5,5,0,0,1-4.16,4.94,4.271,4.271,0,0,1-.87.08l-172.42-.14V80l172.42.14a4.28,4.28,0,0,1,.87.09,5,5,0,0,1,4.16,4.93v80.22l4.23.47a4.51,4.51,0,0,1,4,4.46Z"/><path class="v" d="M130.32,80V325l-32.08,9.7-.38.1a3.84,3.84,0,0,1-4.89-4V164.24l-1.77-1.1c-.52-.31-.91-2.49-.91-5V87.39c0-2.54.39-4.57.91-4.7l1.8-.46v-8a3.83,3.83,0,0,1,4.89-4l.38.1Z"/><g class="y"><path class="h" d="M97.86,70.22V334.76a3.84,3.84,0,0,1-4.89-4V164.24l-1.77-1.1c-.52-.31-.91-2.49-.91-5V87.39c0-2.54.39-4.57.91-4.7l1.8-.46v-8a3.83,3.83,0,0,1,4.86-4.01Z"/></g><path class="k" d="M130.32,80V325l-32.08,9.7-.38.1a3.84,3.84,0,0,1-4.89-4V164.24l-1.77-1.1c-.52-.31-.91-2.49-.91-5V87.39c0-2.54.39-4.57.91-4.7l1.8-.46v-8a3.83,3.83,0,0,1,4.89-4l.38.1Z"/><path class="m" d="M163.32,328.39H130.79v.38l-13.18,4.11-2.25-45.83s6.34-10,14.9-14.64l.53.41C134.37,275.68,155.35,293.63,163.32,328.39Z"/><path class="n" d="M119.66,359.77s-2.15-3.28-2.7-12.44-.16-15.22-1.6-18.8c0,0-1.79-3.23-3.94-6.81s-1.79-15.46-1.44-26.85,2.48-14,7-15.64c11-4,13.74,9.63,18.8,25s4.7,26.27,6.49,30.14,5.42,8.88,8.63,19.27"/><g class="z"><path class="o" d="M147.49,344.57c-5.57-6.23-11.06-10.41-11.75-12.33-1.06-3,2.66-18.54-2.86-23.68s-12.55.51-16.17-.76-3.2-7.69-3.2-20c0-6,4-8.35,8.07-9.19,7.31,1,9.91,12.67,14.18,25.6,5.06,15.36,4.7,26.27,6.49,30.14C143.42,336.87,145.38,339.89,147.49,344.57Z"/></g><path class="p" d="M119.66,359.77s-2.15-3.28-2.7-12.44-.16-15.22-1.6-18.8c0,0-1.79-3.23-3.94-6.81s-1.79-15.46-1.44-26.85,2.48-14,7-15.64c11-4,13.74,9.63,18.8,25s4.7,26.27,6.49,30.14,5.42,8.88,8.63,19.27"/><g transform="translate(-74 145.945)"><path class="w" d="M206.45,113.52v48.76H153.39V99.83h39.36l9.21,9.2Z" transform="translate(73.705)"/><path class="x" d="M201.96,109.03v26.89H157.87V104.01h39.07Z" transform="translate(73.705)"/><path class="p" d="M201.96,109.03v26.89H157.87V104.01h39.07Z" transform="translate(73.705)"/><path class="h" d="M171.28,152.08h.65c.61,0,1.09-.22,1.09-1.16v-9.19h1.89v9.06c0,2.41-1.29,3-2.72,3a6.7,6.7,0,0,1-.91,0Z" transform="translate(73.705)"/><path class="h" d="M181.82,144.73v1.56c0,1.93-.93,3-2.83,3h-.89v4.53h-1.9V141.75H179C180.89,141.75,181.82,142.8,181.82,144.73Zm-3.72-1.26v4.08h.9c.61,0,.93-.27.93-1.14v-1.8c0-.87-.32-1.14-.93-1.14Z" transform="translate(73.705)"/><path class="h" d="M185.54,147.09h2.65v3.82c0,1.93-1,3-2.82,3s-2.83-1.1-2.83-3v-6.27c0-1.93,1-3,2.83-3s2.82,1.1,2.82,3v1.17H186.4v-1.29c0-.86-.38-1.19-1-1.19s-1,.33-1,1.19V151c0,.86.38,1.17,1,1.17s1-.31,1-1.17v-2.22h-.86Z" transform="translate(73.705)"/><path class="w" d="M206.45,113.52h-13.7V99.83l9.21,9.2Z" transform="translate(73.705)"/><path class="w" d="M201.96,122.42v13.5H157.87V129.3l12.07-9.33,11.23,9.47,14.58-12.43Z" transform="translate(73.705)"/><circle class="w" cx="4.54" cy="4.54" r="4.54" transform="translate(242.455 107.93)"/></g><path class="m" d="M257.61,247.83l-11.54,49.89,32.86,6.85s-1.21,14.49.23,14.82,10.93,2.2,10.93,2.2S288,350.82,288,361.17s11.67,18.7,19.7,34.7,25,20.67,44,53.9L368.76,377,328,282.8l-42.78-31.68Z"/><path class="n" d="M292.33,313.56s2.3,9.71,1.93,12.34,2.38,2.63,2.39,2.63c.9,9.83,1.22,19.38.48,23.3-1.44,7.53,5.73,15.49,12,29.44s10.57,16.51,17.38,23.11,5.85,13,10.1,20.72c2.45,4.49,6.61,24.73,9.68,41h72.49c-10.62-20.42-26.9-51.71-28.81-55.37-2.87-5.48-1.43-8.31-6.09-18.55,0,0-5.24-75.14-9.61-80.33s-18.59-11.64-22.6-15.59-20.88-26.17-26.78-27.6-19.7,9.34-19.7,9.34-5-7.29-12.09-4c-4.73,2.2-4.53,10-3,18.26-.07.11-2.5,4-3.74,6.14s-3.76,14.34-3.76,15.6C282.61,315.08,288.23,318.49,292.33,313.56Z"/><path class="o" d="M329.39,336.17s5,7.05,2.15,7.2-11-3.71-15.5-15.05c-1.05-2.64-2.28-5.4-3.55-8.1a7.43,7.43,0,0,0-13.89,1.21l-2,7.1s-2.75,0-2.39-2.63c.33-2.33-1.44-10.22-1.85-12l.75-1.5-9.86-2.49c.37-1.82.84-4,1.33-6,.07-.28.13-.55.21-.81v-.14c.06-.23.11-.44.18-.65a20.608,20.608,0,0,1,1.32-3.94c1.23-2.12,3.67-6,3.74-6.15-1.54-8.25-1.74-16.06,3-18.26,7.13-3.32,12.09,4,12.09,4l.55-.43a2,2,0,0,0,.28-.19c1.16-.87,3.45-2.51,6.12-4.16.39-.24.79-.48,1.2-.71a42.45,42.45,0,0,1,5.63-2.84c.66-.25,1.31-.48,1.94-.66.2-.05.41-.12.62-.16a61.63,61.63,0,0,1,1.39,19.87l6.47,9.87a35.28,35.28,0,0,0,4.18,10.14,51.811,51.811,0,0,1,4.74,10.14s1.19-1,2.86.72c0,0-4.91,6.07-6.4,10.22a13.35,13.35,0,0,1-5.31,6.4Z"/><path class="o" d="M377.44,364.63c-.89-24.23-4.72-37.36-4.72-37.36s1,19.6-1.67,25c0,0-2.16-17.51-1-28.89s-24.65-27-25.71-35.55c3.26,3.87,6,7.15,7.3,8.46,4,3.95,18.23,10.4,22.59,15.59s9.46,78,9.62,80.28C381.14,387,377.93,378.17,377.44,364.63Z"/><path class="o" d="M341.61,442.94c-1.86-8.45-3.67-15.43-5-17.84-3.9-7.1-3.4-13.1-8.61-19.1a16.923,16.923,0,0,0,2.52,1.73C335,410,340,419.52,341.17,426.2,341.78,429.62,341.77,436.76,341.61,442.94Z"/><path class="p" d="M290.11,292.26s-2.49,4-3.74,6.15-3.76,14.34-3.76,15.6,7.72,5.73,11.65-3.77"/><path class="p" d="M343.4,452.46c-3-14.15-6-28.19-12.44-41.67-3.62-8.16-11.78-12.69-17.21-19.94-6.35-10-10-20.84-15.41-30.81-1.81-13.59-.91-27.19-2.72-41.69-1.81-10-4.53-19.93-6.34-29.9,0-5.44-1.81-10.88,3.62-14.5,4.53-1.81,9.07.9,12.29,4,4.77-3.66-.39-.55,0,0,4.93-4,10.37-9.47,16.71-8.56,14.5.9,19.94,18.12,29.91,27.18,2.72,2.72,6.34,3.63,9.06,6.35,5.44,3.62,12.69,5.43,14.5,11.78,6.34,26.28,5.44,50.75,9.06,77,.91,4.53,1.81,10,3.63,14.5,4.53,10,9.51,19.71,14.6,29.35"/><path class="p" d="M305.19,278c4.3,4.48,9.68,17.92,12.37,27.43s2,21.33,2,21.33,4,6.09,7.53,12.19,7.71,4.84,7.71,4.84"/><path class="p" d="M322.91,332.09a7.33,7.33,0,0,0,7.2-2.66c3.23-3.77,1.07-8.07,12.19-9.86"/><path class="p" d="M333.56,323.34a31.749,31.749,0,0,0-3.81-11.49c-3.23-5.55-2.69-9.67-2.69-9.67s-8.06-6.87-8.78-9.92"/><path class="p" d="M320,279.23s-.43,4.95-.81,7.71c-.71,5.32-1.84,6.72-5.13,7.93"/><path class="p" d="M317.56,305.41a15.73,15.73,0,0,0,6.63,2.78s-.71,6.36.72,8,4.12,2.87,4.48,5.56"/><path class="p" d="M319.28,315.29a6.34,6.34,0,0,0,4.2.87"/><path class="p" d="M327.24,327.27s-3.12,3.28-5.86,2.36"/><path class="p" d="M292.33,313.56s2.3,9.71,1.93,12.34,2.39,2.63,2.39,2.63"/><path class="p" d="M327.06,302.18s2-3.94,3.7-4.84"/><path class="p" d="M324.31,334.35a15,15,0,0,1,8.3,4.4"/><path class="p" d="M351.68,296.26c7.11,8.61,13.56,13.45,16.79,17.3s-.1,12.34,1.62,27.88"/><path class="p" d="M358.56,315.29s-1.22,6.79,2.19,12"/><path class="p" d="M326.52,404.38c9.68,7.68,10,9.83,12.19,14.49"/><path class="p" d="M383.89,392.18c-5.38-8.44-6.46-22.42-6.46-22.42"/><path class="w" d="M316.37,257.86l-10.42,47.63-51.83-11.34,13.34-61.01,38.46,8.41,7.03,10.96Z"/><path class="x" d="M312.95,252.51l-5.75,26.27-43.08-9.42,6.82-31.17,38.18,8.35Z"/><path class="p" d="M312.95,252.51l-5.75,26.27-43.08-9.42,6.82-31.17,38.18,8.35Z"/><line class="p" x2="25.18" y2="5.5" transform="translate(280.55 245.62)"/><line class="p" x2="28.72" y2="6.28" transform="translate(276.4 247.64)"/><line class="p" x2="28.72" y2="6.29" transform="translate(275.79 250.44)"/><line class="p" x2="28.72" y2="6.28" transform="translate(275.17 253.25)"/><line class="p" x2="28.72" y2="6.28" transform="translate(274.56 256.05)"/><line class="p" x2="28.72" y2="6.28" transform="translate(273.95 258.85)"/><line class="p" x2="28.71" y2="6.28" transform="translate(273.34 261.65)"/><line class="p" x2="25.18" y2="5.51" transform="translate(272.72 264.45)"/><path class="h" d="M278.41,279.86l-5.72-1.25-.37,1.69,1.94.42-2.21,10.1,1.85.4,2.21-10.1,1.94.43Z"/><path class="h" d="M283.85,281.05l-2.38,4.03-.45-4.64-1.92-.43.69,6.15-3.4,5.61,1.74.38,2.55-4.33.49,4.99,1.95.43-.74-6.51,3.18-5.3Z"/><path class="h" d="M286.25,281.58l-.37,1.68,1.94.43-2.21,10.09,1.85.41,2.21-10.1,1.94.42.37-1.68Z"/><path class="w" d="M316.37,257.86,303,254.93l2.92-13.38,7.03,10.96Z"/><path class="n" d="M309.14,381.27c-6.28-13.95-13.45-21.91-12-29.44s-1.08-35.85-4-47-7.21-27.5,0-30.86,12.09,4,12.09,4c4.3,4.48,9.68,17.92,12.37,27.43s2,21.33,2,21.33,4,6.09,7.53,12.19,7.71,4.84,7.71,4.84"/><g class="aa"><path class="o" d="M308.55,325.9s-11.9,1.31-11,16.76c-.26-11.66-2.21-29.51-4.41-37.79-2.06-7.77-4.76-18.11-3.74-24.78,3.24-2.25,7.06-3.66,10.78-2.11,9.3,3.86,7.63,13.59,7.63,13.59s-10.83,1.84-11.12,8.19S304.13,306.1,308.55,325.9Z"/></g><path class="p" d="M309.14,381.27c-6.28-13.95-13.45-21.91-12-29.44s-1.08-35.85-4-47-7.21-27.5,0-30.86,12.09,4,12.09,4c4.3,4.48,9.68,17.92,12.37,27.43s2,21.33,2,21.33,4,6.09,7.53,12.19,7.71,4.84,7.71,4.84"/></g></svg>